HIERARCHY
ROOT Bip001_Pelvis
{
  OFFSET 32.8599 95.8771 -27.9544
  CHANNELS 6 Xposition Yposition Zposition Zrotation Xrotation Yrotation
  JOINT Bip001_Spine
  {
    OFFSET 1.4188e-005 10.2191 -0.0116013
    CHANNELS 3 Zrotation Xrotation Yrotation
    JOINT Bip001_L_Thigh
    {
      OFFSET 11.0458 -10.2191 0.0116197
      CHANNELS 3 Zrotation Xrotation Yrotation
      JOINT Bip001_L_Calf
      {
        OFFSET -0.707118 -44.0221 0.360014
        CHANNELS 3 Zrotation Xrotation Yrotation
        JOINT Bip001_L_Foot
        {
          OFFSET -0.651902 -40.5938 -3.56146
          CHANNELS 3 Zrotation Xrotation Yrotation
          JOINT Bip001_L_Toe0
          {
            OFFSET 0.0530839 -10.2181 13.1504
            CHANNELS 3 Zrotation Xrotation Yrotation
            End Site
            {
              OFFSET -1.02532e-005 0 7.55606
            }
          }
        }
      }
    }
    JOINT Bip001_R_Thigh
    {
      OFFSET -11.0458 -10.2191 0.0115893
      CHANNELS 3 Zrotation Xrotation Yrotation
      JOINT Bip001_R_Calf
      {
        OFFSET 0.706994 -44.0221 0.35984
        CHANNELS 3 Zrotation Xrotation Yrotation
        JOINT Bip001_R_Foot
        {
          OFFSET 0.651787 -40.5938 -3.5613
          CHANNELS 3 Zrotation Xrotation Yrotation
          JOINT Bip001_R_Toe0
          {
            OFFSET -0.0531479 -10.2181 13.1504
            CHANNELS 3 Zrotation Xrotation Yrotation
            End Site
            {
              OFFSET -1.02894e-005 0 7.55606
            }
          }
        }
      }
    }
    JOINT Bip001_Spine1
    {
      OFFSET 1.87041e-005 14.5736 1.08638
      CHANNELS 3 Zrotation Xrotation Yrotation
      JOINT Bip001_Spine2
      {
        OFFSET 2.24614e-005 14.5058 -1.69078
        CHANNELS 3 Zrotation Xrotation Yrotation
        JOINT Bip001_Neck
        {
          OFFSET 2.20278e-005 15.3945 -0.489414
          CHANNELS 3 Zrotation Xrotation Yrotation
          JOINT Bip001_L_Clavicle
          {
            OFFSET 6.06036 -0.000579998 0.00836775
            CHANNELS 3 Zrotation Xrotation Yrotation
            JOINT Bip001_L_UpperArm
            {
              OFFSET 11.5509 -0.0600302 0.00193952
              CHANNELS 3 Zrotation Xrotation Yrotation
              JOINT Bip001_L_Forearm
              {
                OFFSET 25.9523 0.0806089 -2.15551
                CHANNELS 3 Zrotation Xrotation Yrotation
                JOINT Bip001_L_Hand
                {
                  OFFSET 32.2475 0.153767 1.63968
                  CHANNELS 3 Zrotation Xrotation Yrotation
                  JOINT Bip001_L_Finger0
                  {
                    OFFSET 6.04639 -2.20976 5.90322
                    CHANNELS 3 Zrotation Xrotation Yrotation
                    End Site
                    {
                      OFFSET 4.22375 -1.43895 0.606486
                    }
                  }
                  JOINT Bip001_L_Finger1
                  {
                    OFFSET 11.0826 -0.704819 -0.198153
                    CHANNELS 3 Zrotation Xrotation Yrotation
                    End Site
                    {
                      OFFSET 6.20027 -0.397518 -0.0787166
                    }
                  }
                }
              }
            }
          }
          JOINT Bip001_R_Clavicle
          {
            OFFSET -6.06036 -0.000563197 0.00835105
            CHANNELS 3 Zrotation Xrotation Yrotation
            JOINT Bip001_R_UpperArm
            {
              OFFSET -11.5509 -0.0599978 0.00190698
              CHANNELS 3 Zrotation Xrotation Yrotation
              JOINT Bip001_R_Forearm
              {
                OFFSET -25.9523 0.0806819 -2.1559
                CHANNELS 3 Zrotation Xrotation Yrotation
                JOINT Bip001_R_Hand
                {
                  OFFSET -32.2476 0.153857 1.63991
                  CHANNELS 3 Zrotation Xrotation Yrotation
                  JOINT Bip001_R_Finger0
                  {
                    OFFSET -6.04642 -2.20975 5.9032
                    CHANNELS 3 Zrotation Xrotation Yrotation
                    End Site
                    {
                      OFFSET -4.22376 -1.43894 0.606473
                    }
                  }
                  JOINT Bip001_R_Finger1
                  {
                    OFFSET -11.0826 -0.70479 -0.198183
                    CHANNELS 3 Zrotation Xrotation Yrotation
                    End Site
                    {
                      OFFSET -6.20028 -0.397501 -0.0787337
                    }
                  }
                }
              }
            }
          }
          JOINT Bip001_Head
          {
            OFFSET 1.09673e-005 11.2744 2.05948
            CHANNELS 3 Zrotation Xrotation Yrotation
            End Site
            {
              OFFSET 2.89576e-005 20.8808 -2.77728e-005
            }
          }
        }
      }
    }
  }
}
MOTION
Frames:	16
Frame Time:	0.04
33.0999 95.8703 -28.7487 0.608013 -0.671052 2.01954 -0.233343 2.20724 -0.0464413 4.62454 -2.74479 8.7804 -0.367 6.71757 -13.0478 5.49775 -1.63138 -0.201454 -1.29191 -5.29066 2.65715 -3.52231 -3.15201 -2.49494 -0.0288549 10.9754 0.475381 -5.51858 -9.81498 2.37235 2.13952 -7.28578 2.1756 -0.44668 4.41464 -0.0842751 -0.44657 4.41466 -0.0842955 0.998197 -8.07667 -2.80959 -25.2177 8.64381 1.10631 -57.157 44.7975 2.78791 16.6714 3.99584 -20.2095 9.09404 1.92201 -4.60438 -3.18055e-015 3.18055e-015 3.18055e-015 -3.18055e-015 3.18056e-015 3.18055e-015 27.0862 14.4372 12.6568 52.3636 36.5293 3.90856 -7.96032 7.36114 4.75147 -7.3431 5.09139 9.92692 -4.77083e-015 3.18055e-015 -0 -4.77083e-015 3.18056e-015 -7.95139e-016 -0.0418728 -5.03009 -2.48627 
33.0831 95.897 -28.7116 0.578116 -0.60709 2.09446 -0.226704 2.17364 -0.0716527 4.69597 -2.62892 6.80148 -0.652742 6.38388 -11.089 5.34363 -1.53186 -0.201444 -1.35367 -5.2306 2.6569 -3.46458 -3.09655 -2.3806 -0.0106264 10.8539 0.462866 -5.5528 -9.70103 2.22705 2.14193 -7.28569 2.1946 -0.450161 4.34755 -0.135099 -0.450664 4.34755 -0.135013 1.38643 -7.53293 -2.59482 -25.5494 8.14868 0.90994 -57.3858 44.809 3.09656 16.8126 3.91796 -20.3505 9.0624 1.88931 -4.65244 9.54166e-015 0 1.59028e-015 9.54166e-015 3.18056e-015 -0 26.7263 13.8502 12.7164 52.6837 36.3592 3.3653 -8.25067 7.06264 4.94032 -6.79728 4.67203 9.80312 1.59028e-015 6.36111e-015 -0 -0 0 1.59028e-015 -0.0799692 -5.70958 -2.19602 
33.0185 95.8993 -28.6824 0.478706 -0.52534 2.19135 -0.213924 2.15181 -0.0865523 4.85494 -2.73183 6.49684 -0.744784 6.45792 -10.8529 5.41175 -1.50354 -0.201442 -1.32007 -5.2864 2.63296 -3.29994 -3.06361 -2.18318 -0.0142279 10.7107 0.412017 -5.62586 -9.60864 2.00533 2.14225 -7.28578 2.19709 -0.424693 4.30394 -0.170405 -0.424741 4.30394 -0.169789 1.31535 -7.57279 -2.58098 -25.4582 8.17283 0.991283 -57.5887 44.8846 3.23344 16.8589 3.73755 -20.3308 9.00964 1.88064 -4.62703 -3.18055e-015 0 1.59028e-015 -3.18055e-015 0 1.59028e-015 26.7718 13.8181 12.5247 52.8631 36.0936 2.55256 -8.2893 6.67976 5.72848 -7.09839 5.49345 9.71754 -1.59028e-015 -6.36111e-015 1.59028e-015 1.59028e-015 -9.54167e-015 1.59028e-015 -0.0566402 -5.66378 -2.18627 
32.9935 95.906 -28.6114 0.462915 -0.497746 2.23 -0.215582 2.14252 -0.0854425 4.89368 -2.66565 5.87813 -0.830953 6.34218 -10.2839 5.42841 -1.44652 -0.204295 -1.32378 -5.28802 2.6288 -3.25452 -2.9773 -2.16717 -0.0132996 10.6014 0.420347 -5.65958 -9.58152 1.94265 2.14246 -7.2861 2.19868 -0.428018 4.28531 -0.171633 -0.428199 4.28531 -0.169382 1.31516 -7.69646 -2.57903 -25.4285 8.27149 1.08243 -57.7921 44.9839 3.34325 16.7883 3.32049 -20.2794 8.85515 1.90246 -4.46178 3.18055e-015 -9.54166e-015 -1.59028e-015 -0 -9.54167e-015 -0 26.8461 13.8718 12.2651 53.0005 35.9597 1.43391 -8.26542 6.74321 6.73243 -6.97215 5.36353 9.91348 -4.77083e-015 0 -0 -4.77083e-015 0 -0 -0.095387 -5.45609 -2.18538 
32.9767 95.9065 -28.5497 0.472024 -0.438015 2.23194 -0.219793 2.13007 -0.0834954 4.89556 -2.68154 5.95555 -0.764065 6.38172 -10.2664 5.08492 -1.73427 -0.17778 -1.40838 -5.04864 2.69503 -3.24701 -2.98087 -2.08161 -0.00342789 10.5891 0.392394 -5.68664 -9.60176 1.89788 2.13898 -7.25727 2.18507 -0.436562 4.26047 -0.171927 -0.436841 4.26046 -0.168151 1.24716 -7.67422 -2.57204 -25.3028 8.27275 1.02093 -57.948 44.9278 3.4665 16.7236 3.15435 -20.3005 8.79329 1.7982 -4.39601 3.18055e-015 0 -3.18055e-015 0 0 -1.59028e-015 26.9553 13.82 12.1601 53.3074 36.0775 0.0346603 -8.32897 5.98592 7.79011 -6.97557 5.07893 10.0991 -0 -3.18055e-015 -0 3.18055e-015 -6.36111e-015 -7.95139e-016 -0.0601737 -5.44989 -2.19712 
33.0312 95.9086 -28.4331 0.640516 -0.555846 2.19138 -0.254023 2.15817 -0.0809971 4.61989 -2.30827 5.78643 -0.636304 5.93422 -10.172 5.28459 -1.37978 -0.203207 -1.34541 -5.22896 2.65381 -3.45494 -2.8774 -2.32619 0.0194574 10.7332 0.408015 -5.61846 -9.76727 2.11369 2.14029 -7.25056 2.20827 -0.504511 4.31725 -0.160062 -0.50473 4.31725 -0.16015 1.18979 -7.69382 -2.55357 -25.2242 8.31648 0.963249 -57.9381 44.8524 3.46708 16.7368 3.27674 -20.3038 8.7488 1.7697 -4.44416 -6.36111e-015 -6.36111e-015 -0 -3.18055e-015 -6.36111e-015 -1.59028e-015 27.1378 13.8014 11.9867 53.564 36.1579 -1.65031 -8.46923 5.62959 9.19833 -7.02162 4.59767 9.88082 -1.59028e-015 -3.18055e-015 7.95139e-016 -3.18055e-015 0 2.38542e-015 -0.0171603 -5.38133 -2.20073 
33.0005 95.9049 -28.3862 0.632138 -0.488876 2.15784 -0.25598 2.15747 -0.074086 4.68591 -2.36098 6.07644 -0.655686 6.01945 -10.3826 5.10193 -1.60701 -0.188108 -1.41246 -5.09893 2.71006 -3.42542 -2.88927 -2.2069 0.0635879 10.6785 0.378691 -5.66144 -9.76577 1.99993 2.1413 -7.26794 2.2199 -0.511396 4.29738 -0.138719 -0.511447 4.29738 -0.138719 1.08874 -7.79413 -2.55687 -25.1392 8.44777 0.890903 -57.8684 44.6818 3.52069 16.7079 3.33511 -20.346 8.76944 1.84379 -4.56241 3.18055e-015 -3.18055e-015 1.59028e-015 1.76556e-031 -3.18056e-015 3.18055e-015 27.1751 13.8985 11.9917 54.1137 35.4722 -3.76635 -8.6849 4.69034 10.9844 -6.87339 4.95168 10.1228 3.18055e-015 0 -1.59028e-015 1.59028e-015 0 -0 0.0792842 -5.19919 -2.24475 
32.9778 95.8972 -28.3534 0.650114 -0.418358 2.10978 -0.258884 2.15643 -0.0524275 4.707 -2.39425 6.26623 -0.674931 6.00972 -10.5418 5.13211 -1.59445 -0.188885 -1.39041 -5.12411 2.69747 -3.42892 -2.96922 -2.11009 0.0891038 10.7314 0.326231 -5.68359 -9.82067 1.9704 2.14427 -7.27344 2.19269 -0.534393 4.29937 -0.0950263 -0.535007 4.29936 -0.0950163 0.886586 -8.20158 -2.61318 -24.9368 8.79688 1.14591 -57.774 44.4409 3.65914 16.8015 3.37261 -20.821 8.86817 1.9377 -4.68178 -0 0 1.59028e-015 -1.76556e-031 3.18056e-015 3.18055e-015 27.594 14.2814 11.7232 54.0971 34.6597 -7.13964 -9.71747 2.22601 15.0216 -6.41795 8.16938 11.3285 0 0 -7.95139e-016 0 0 -1.59028e-015 0.289367 -4.92843 -2.38394 
32.9543 95.8976 -28.3246 0.610837 -0.313766 2.07236 -0.262899 2.15574 -0.0173397 4.79466 -2.53641 6.30035 -0.710872 6.14753 -10.488 4.92599 -1.83906 -0.167945 -1.45736 -4.99228 2.7363 -3.36922 -3.01285 -1.98817 0.0852435 10.6176 0.234845 -5.68087 -9.76942 1.94079 2.1597 -7.32287 2.22107 -0.528603 4.31005 -0.0248824 -0.528978 4.31005 -0.0248405 0.764149 -8.59806 -2.73499 -24.8217 9.11507 1.42058 -57.672 44.0382 3.81951 17.0058 3.1985 -21.4656 8.84578 1.97259 -4.75123 -3.18055e-015 -3.18055e-015 -1.59028e-015 -6.36111e-015 -3.18056e-015 -0 28.0893 14.6415 11.2948 53.8913 32.0535 -10.9565 -12.5914 1.13132 20.1179 -7.68555 15.1658 13.6681 -3.18055e-015 6.36111e-015 -0 8.82782e-032 6.36111e-015 -7.95139e-016 0.367312 -4.83478 -2.54761 
32.9682 95.897 -28.3006 0.63904 -0.211457 2.08279 -0.278008 2.16113 0.0032662 4.76869 -2.58423 6.08601 -0.781788 6.03705 -10.382 5.21363 -1.58999 -0.190702 -1.38465 -5.16016 2.67997 -3.404 -3.05226 -1.89376 0.139052 10.5266 0.14055 -5.68351 -9.7663 1.85224 2.17129 -7.36203 2.22852 -0.556733 4.31747 0.0170417 -0.556733 4.31746 0.0170394 0.932185 -8.84847 -2.87685 -24.8274 9.27581 1.63515 -57.6642 43.3767 4.08214 17.1454 2.73149 -22.3008 8.62057 1.96614 -4.67941 6.36111e-015 0 1.59028e-015 9.54166e-015 0 3.18055e-015 27.709 14.7534 10.9255 54.3918 27.199 -14.3867 -17.4324 0.909991 26.1353 -9.98292 20.587 15.1597 3.18055e-015 4.77083e-015 -1.59028e-015 3.18055e-015 3.18056e-015 -7.95139e-016 0.204993 -4.80922 -2.61411 
32.9578 95.9037 -28.2569 0.528983 -0.228696 2.22874 -0.273305 2.16298 -0.0411317 4.99501 -2.63747 6.31645 -0.9392 6.21548 -10.6182 5.19218 -1.7804 -0.180679 -1.37732 -5.04579 2.6705 -3.23441 -2.88803 -1.89165 0.0624687 10.2967 0.129043 -5.68991 -9.64069 1.77238 2.17812 -7.37799 2.23158 -0.545491 4.32608 -0.0726936 -0.546524 4.3261 -0.0723156 1.20034 -8.79828 -2.91463 -24.9555 9.14991 1.7976 -57.6802 42.8016 4.49474 17.3699 2.39699 -22.9597 9.024 1.70881 -4.73783 -6.36111e-015 -3.18055e-015 -0 -6.36111e-015 -6.36111e-015 -0 27.2611 14.5136 10.4826 53.6338 21.4004 -16.077 -21.3206 -2.04417 31.5665 -13.6742 24.1104 17.8008 -3.18055e-015 -1.59028e-015 1.59028e-015 -3.18055e-015 0 1.59028e-015 0.0976698 -4.85127 -2.57193 
32.9607 95.9073 -28.3108 0.409662 0.00989848 2.42286 -0.243438 2.12004 -0.0871356 5.1659 -3.02951 6.21096 -1.08273 6.48736 -10.585 5.15855 -1.92127 -0.170717 -1.4069 -4.98554 2.67822 -3.09712 -3.01835 -1.43768 0.0969165 10.1163 0.098282 -5.85838 -9.42751 1.22484 2.20043 -7.44727 2.25072 -0.482871 4.24042 -0.163618 -0.483428 4.24042 -0.164418 1.24427 -8.78123 -2.94319 -25.0811 9.09593 1.8977 -57.3067 42.4209 4.58048 17.5256 2.23866 -23.2561 9.3951 1.60377 -4.73696 -6.36111e-015 -6.36111e-015 1.59028e-015 -3.18055e-015 -3.18056e-015 3.18055e-015 26.7496 14.2676 10.0516 53.0054 16.1127 -18.4364 -24.3907 -8.82666 40.7106 -18.4535 24.7426 19.3794 -3.18055e-015 -1.59028e-015 -0 -9.54166e-015 -1.59028e-015 -0 0.0652614 -4.89067 -2.58454 
33.2207 95.897 -28.4024 0.729285 0.31814 2.69144 -0.305773 2.08251 -0.137849 4.57447 -3.3278 6.1268 -0.791428 6.32135 -10.7525 5.15749 -1.75253 -0.182069 -1.43004 -4.97864 2.69665 -3.63344 -3.54675 -1.96391 0.207791 10.6831 0.0774439 -5.79841 -9.68395 1.44877 2.22075 -7.52269 2.28795 -0.606498 4.16577 -0.263736 -0.606764 4.16578 -0.2643 1.47079 -8.77278 -3.06102 -25.2494 9.0551 1.8832 -56.8949 42.0813 4.36857 17.5802 2.09134 -23.1646 9.61304 1.62296 -4.69471 -8.82781e-032 -3.18055e-015 -1.59028e-015 0 0 -1.59028e-015 25.9481 14.0559 9.68406 51.3486 7.52578 -19.0114 -23.3276 -13.7973 52.1076 -23.8819 25.6565 22.7116 -6.36111e-015 -3.18055e-015 -0 -3.18055e-015 -3.18056e-015 -3.18055e-015 -0.211841 -4.91732 -2.59627 
33.398 95.9016 -28.3768 1.066 0.412163 2.69725 -0.370722 2.0821 -0.160196 4.1199 -3.19927 6.60403 -0.634439 5.93587 -11.1478 4.94224 -1.71157 -0.175164 -1.48729 -4.82377 2.72647 -4.04966 -3.84306 -1.72289 0.311874 11.1732 0.0223036 -5.83595 -9.84026 1.23995 2.22561 -7.54622 2.28127 -0.736748 4.16517 -0.307823 -0.736567 4.16518 -0.307521 1.43678 -8.50171 -3.05876 -25.1027 8.85105 1.63799 -56.4601 41.7007 4.06804 17.6055 2.02866 -22.8814 9.2997 1.81571 -4.47382 3.18055e-015 3.18055e-015 -1.59028e-015 6.36111e-015 6.36111e-015 -1.59028e-015 25.367 13.6933 9.79815 49.1028 -2.50489 -16.7439 -20.785 -13.784 63.0394 -28.4574 25.7659 27.1077 -7.95139e-016 -7.95139e-016 -3.18055e-015 7.95139e-016 3.97569e-016 -0 -0.216302 -4.93894 -2.60035 
33.3955 95.9145 -28.3163 0.638732 -0.0269939 2.94809 -0.271101 2.16932 -0.216911 4.56451 -3.17712 6.597 -0.696339 6.60717 -11.1849 4.8301 -2.19239 -0.1489 -1.4787 -4.68275 2.70161 -3.61351 -3.09247 -2.30518 0.076254 10.4564 0.172074 -5.75258 -9.52844 1.5664 2.22793 -7.52703 2.28255 -0.534549 4.33963 -0.423995 -0.534549 4.33963 -0.423997 1.28147 -8.31588 -3.03907 -24.9792 8.71726 1.49336 -55.9854 41.4359 3.76302 17.4669 1.8059 -22.5806 9.54216 1.79639 -4.17783 6.36111e-015 0 -3.18055e-015 3.18055e-015 -3.18056e-015 -1.59028e-015 25.3423 13.6467 10.3115 47.016 -14.2718 -13.5856 -14.8704 -10.7111 74.6022 -34.7739 26.115 30.8007 1.59028e-015 -7.95139e-016 6.36111e-015 1.59028e-015 -2.38542e-015 9.54166e-015 -0.131081 -4.78856 -2.63021 
33.4844 95.913 -28.2718 0.847464 -0.0618765 2.62232 -0.304496 2.18256 -0.126408 4.28621 -2.89301 7.74252 -0.54454 6.28823 -12.1246 4.76653 -2.14058 -0.150517 -1.51195 -4.63052 2.7283 -3.87482 -3.22969 -1.94183 0.160587 10.7529 0.144783 -5.77228 -9.63755 1.4428 2.23497 -7.55692 2.29692 -0.603518 4.36573 -0.241702 -0.604173 4.36573 -0.24164 1.19561 -8.30067 -3.15777 -25.013 8.71847 1.39159 -55.4874 41.2356 3.42343 17.2832 1.51716 -22.344 9.73068 1.91949 -4.05736 3.18055e-015 0 -1.59028e-015 -8.82782e-032 -3.18056e-015 -1.59028e-015 25.3796 13.9336 11.186 46.0429 -24.5918 -9.31043 -9.21183 -5.47298 84.7691 -41.0345 25.1505 33.0514 3.18055e-015 7.95139e-016 -3.18055e-015 -0 -7.95139e-016 -0 -0.145651 -4.62168 -2.76145 
